<svg width="16" height="16" viewBox="0 0 16 16" xmlns="http://www.w3.org/2000/svg">
  <rect width="16" height="16" fill="white" rx="0" ry="0"/>
  <path d="M3,2 L5,2 C5.55,2 6,2.45 6,3 L6,7.5 C6,8.05 5.55,8.5 5,8.5 L3,8.5 L3,14 C3,14.55 2.55,15 2,15 L0,15 C-0.55,15 -1,14.55 -1,14 L-1,3 C-1,2.45 -0.55,2 0,2 L3,2 Z" fill="black" transform="translate(3, 0)"/>
  <path d="M3,2 L5,2 C5.55,2 6,2.45 6,3 L6,7.5 C6,8.05 5.55,8.5 5,8.5 L3,8.5 L3,14 C3,14.55 2.55,15 2,15 L0,15 C-0.55,15 -1,14.55 -1,14 L-1,3 C-1,2.45 -0.55,2 0,2 L3,2 Z" fill="black" transform="translate(10, 0)"/>
  <path d="M5,6 L11,6 C11.55,6 12,6.45 12,7 C12,7.55 11.55,8 11,8 L5,8 C4.45,8 4,7.55 4,7 C4,6.45 4.45,6 5,6 Z" fill="black" transform="translate(0, 4)"/>
</svg>